<?xml version="1.0" standalone="no"?>
<!DOCTYPE svg PUBLIC "-//W3C//DTD SVG 20010904//EN"
 "http://www.w3.org/TR/2001/REC-SVG-20010904/DTD/svg10.dtd">
<svg version="1.0" xmlns="http://www.w3.org/2000/svg"
 width="310.000000pt" height="310.000000pt" viewBox="0 0 310.000000 310.000000"
 preserveAspectRatio="xMidYMid meet">
<metadata>
Created by potrace 1.11, written by Peter Selinger 2001-2013
</metadata>
<g transform="translate(0.000000,310.000000) scale(0.100000,-0.100000)"
fill="#000000" stroke="none">
<path d="M1092 3093 c1 -5 -4 -20 -10 -34 -21 -51 -12 -88 33 -135 24 -24 48
-44 54 -44 6 0 11 -3 11 -7 0 -5 16 -19 35 -32 19 -13 43 -31 54 -40 10 -9 44
-34 75 -56 30 -22 54 -45 52 -51 -2 -6 0 -17 4 -25 5 -8 4 -19 -2 -26 -13 -16
-32 -17 -22 -1 5 7 3 8 -5 4 -7 -5 -18 0 -26 10 -8 11 -15 15 -15 10 0 -5 -8
-2 -17 6 -22 19 -63 30 -63 16 0 -5 -4 -7 -9 -4 -17 11 -78 -58 -88 -101 -9
-35 -8 -47 8 -72 19 -32 55 -71 65 -71 3 0 40 -27 83 -59 84 -64 88 -72 87
-159 -1 -29 2 -52 6 -52 4 0 5 -6 2 -14 -8 -21 -10 -196 -2 -196 4 0 4 -10 0
-22 -4 -13 -7 -52 -7 -88 0 -36 -4 -68 -9 -71 -4 -4 -57 18 -117 47 -60 30
-111 53 -113 51 -2 -1 -13 7 -25 17 -12 11 -21 15 -21 10 0 -5 -4 -4 -8 1 -4
6 -25 19 -47 30 -55 27 -65 39 -70 77 -2 18 -6 56 -10 83 -3 28 -8 59 -10 70
-2 11 -7 33 -10 49 -8 39 -29 77 -54 98 -12 10 -21 15 -21 12 0 -4 -6 -2 -12
3 -7 6 -20 9 -28 8 -8 -2 -25 -5 -37 -7 -27 -5 -85 -57 -77 -70 3 -4 1 -8 -4
-8 -5 0 -10 -28 -11 -62 -1 -35 -4 -64 -6 -66 -6 -6 -66 29 -71 42 -3 7 -6 26
-8 42 -2 16 -5 29 -6 29 -1 0 -3 20 -5 45 -5 73 -28 215 -35 215 -1 0 -3 7 -5
15 -3 19 -45 89 -45 76 0 -5 -6 -4 -12 2 -21 17 -71 17 -103 0 -31 -16 -74
-58 -60 -58 4 0 3 -6 -2 -12 -6 -7 -10 -30 -10 -51 0 -20 -3 -40 -6 -44 -4 -3
-2 -12 4 -19 6 -8 9 -20 6 -28 -3 -7 -1 -18 5 -24 16 -16 -18 -28 -36 -13 -7
6 -16 8 -19 4 -4 -3 -7 0 -7 7 0 7 -3 10 -6 7 -4 -3 -15 -2 -26 4 -57 31 -108
28 -146 -9 -54 -52 -46 -127 20 -184 23 -21 48 -38 55 -38 7 0 13 -4 13 -10 0
-5 7 -10 16 -10 17 0 16 -35 -1 -35 -29 -2 -206 -105 -179 -105 3 0 1 -6 -5
-14 -6 -7 -8 -22 -4 -31 4 -12 3 -16 -4 -12 -6 4 -1 -13 10 -37 22 -49 77 -87
118 -82 34 3 159 49 159 58 0 5 7 8 14 8 8 0 49 15 90 34 41 19 77 32 80 28 3
-3 6 0 6 6 0 13 44 0 67 -20 11 -9 10 -13 -4 -23 -10 -7 -21 -11 -25 -9 -5 3
-8 2 -8 -3 0 -4 -13 -14 -28 -21 -49 -21 -66 -86 -38 -140 15 -29 66 -81 66
-68 0 5 6 4 13 -2 14 -12 56 -9 84 7 11 5 23 7 27 4 3 -3 6 -1 6 5 0 7 3 11 8
10 4 -1 19 4 35 10 44 19 82 33 85 33 1 -1 15 5 30 13 24 12 58 15 70 6 1 -2
5 -3 10 -5 10 -2 45 -18 124 -53 36 -17 69 -28 72 -25 3 4 6 1 6 -5 0 -7 9
-12 20 -12 11 0 20 -5 20 -11 0 -6 7 -9 15 -5 8 3 15 2 15 -3 0 -7 35 -23 50
-23 11 0 28 -26 22 -35 -4 -5 -32 -28 -63 -50 -31 -23 -63 -49 -72 -58 -10 -9
-17 -14 -17 -10 0 3 -24 -13 -52 -35 -63 -48 -60 -46 -123 -89 -28 -19 -53
-40 -57 -45 -4 -6 -8 -7 -8 -2 0 6 -5 5 -11 -1 -9 -9 -19 -8 -39 2 -15 8 -62
28 -104 44 -157 63 -235 60 -272 -11 -31 -60 -10 -125 54 -168 25 -16 51 -30
59 -30 7 0 13 -4 13 -10 0 -5 -5 -10 -11 -10 -5 0 -7 -5 -4 -10 4 -6 3 -9 -2
-8 -4 1 -18 -3 -30 -10 -22 -12 -34 -10 -88 13 -62 28 -90 38 -97 37 -5 -1 -8
3 -8 9 0 5 -5 7 -10 4 -6 -3 -10 -1 -10 5 0 7 -6 10 -14 7 -7 -3 -17 -2 -22 3
-10 8 -67 28 -103 35 -13 2 -31 7 -42 10 -10 4 -19 2 -19 -4 0 -6 -6 -8 -13
-6 -7 3 -27 -8 -45 -24 -29 -27 -32 -36 -32 -84 0 -39 6 -61 20 -80 19 -23
135 -87 161 -87 8 0 7 -7 -4 -23 -8 -12 -18 -22 -23 -21 -14 1 -85 -68 -100
-97 -25 -48 15 -134 67 -143 13 -3 24 -5 24 -6 0 -1 9 -3 20 -5 11 -2 43 7 72
20 28 14 57 25 62 25 6 0 11 4 11 10 0 5 6 7 14 4 11 -4 14 -27 11 -107 -3
-111 5 -136 53 -160 29 -14 75 -15 107 -2 31 13 65 42 58 49 -3 3 -2 6 3 6 6
0 11 10 11 23 1 12 5 38 9 57 4 19 7 54 8 78 0 23 3 42 6 42 3 0 5 17 5 38 -1
20 3 45 7 54 5 10 4 19 -2 23 -7 4 -7 12 0 24 5 10 7 21 3 24 -7 7 22 37 35
37 6 0 12 6 15 13 3 9 7 9 18 0 10 -8 14 -29 13 -67 -3 -67 20 -102 71 -112
75 -14 154 29 162 87 1 13 4 38 7 54 2 17 7 55 11 85 4 30 9 67 10 83 3 34 17
51 74 90 25 17 48 33 51 36 3 4 31 24 62 45 32 21 66 47 77 57 10 10 22 15 25
12 3 -4 6 -1 6 5 0 7 7 12 15 12 8 0 15 3 15 8 0 4 25 23 55 42 30 19 55 38
55 41 0 3 7 6 15 6 18 0 17 17 19 -310 1 -279 9 -251 -82 -310 -47 -30 -166
-145 -169 -163 -1 -6 -4 -23 -7 -37 -5 -28 47 -112 63 -102 5 3 11 0 13 -6 4
-13 77 -18 85 -7 2 5 8 6 13 3 4 -3 13 2 20 10 7 8 18 15 25 15 7 0 18 7 25
15 16 19 31 19 24 0 -4 -8 -1 -15 6 -15 6 0 8 -5 3 -13 -4 -6 -9 -21 -10 -31
-4 -25 -22 -46 -39 -46 -8 0 -14 -3 -14 -7 0 -5 -17 -19 -38 -33 -20 -14 -39
-27 -42 -30 -3 -3 -30 -25 -60 -50 -56 -45 -105 -98 -105 -111 0 -4 -3 -11 -7
-15 -10 -9 -10 -56 -2 -78 4 -9 18 -16 34 -16 28 0 29 1 14 28 -7 15 -14 33
-14 41 0 19 117 130 197 187 37 26 70 52 71 56 2 4 8 8 14 8 27 0 40 32 39 98
-2 134 -2 134 -86 72 -29 -21 -55 -36 -59 -33 -3 4 -6 2 -6 -4 0 -15 -78 -9
-95 8 -7 7 -16 27 -19 43 -7 40 31 87 129 158 44 32 89 64 99 72 18 14 19 34
20 323 1 169 0 320 -2 335 -5 30 -18 29 -68 -9 -17 -13 -36 -23 -43 -23 -7 0
-9 -4 -6 -10 3 -5 2 -10 -3 -10 -11 0 -106 -62 -110 -72 -2 -5 -8 -8 -13 -8
-6 0 -15 -5 -22 -10 -7 -6 -72 -54 -145 -106 -73 -52 -130 -99 -127 -105 4 -5
2 -9 -3 -9 -5 0 -9 -6 -9 -12 -1 -14 -12 -114 -18 -163 -13 -111 -36 -143 -99
-143 -49 1 -61 21 -58 102 1 39 4 83 6 97 3 24 1 26 -23 19 -35 -10 -102 -48
-126 -71 -10 -10 -20 -29 -22 -41 -6 -61 -15 -156 -16 -185 -1 -18 -4 -33 -7
-33 -3 0 -5 -17 -6 -38 -1 -69 -9 -97 -33 -120 -19 -19 -32 -23 -64 -19 -34 4
-54 17 -57 37 -6 34 -6 69 -1 66 3 -2 6 19 5 47 0 28 3 69 7 91 8 44 3 66 -15
66 -7 0 -52 -20 -100 -45 -101 -51 -127 -55 -161 -20 -34 33 -31 61 8 99 40
38 81 71 85 68 5 -4 59 27 70 41 14 16 9 19 -115 71 -45 18 -89 41 -98 50 -36
36 -24 121 19 131 28 7 66 3 66 -7 0 -3 8 -6 19 -5 19 1 196 -68 220 -87 7 -5
18 -11 25 -12 6 -2 25 -8 42 -15 28 -11 35 -10 61 9 17 12 33 19 37 15 3 -3 6
-1 6 5 0 6 8 13 19 17 10 3 28 14 40 24 l22 19 -28 19 c-15 11 -43 26 -60 34
-18 8 -33 17 -33 21 0 5 -5 7 -12 6 -13 -3 -57 57 -54 75 12 64 38 78 121 62
11 -2 20 -4 20 -5 0 -2 38 -11 53 -12 6 -1 12 -4 12 -8 0 -5 71 -35 77 -32 1
1 21 -9 44 -22 34 -20 47 -22 70 -14 16 5 29 14 29 19 0 5 5 9 10 9 6 0 18 7
28 15 36 33 122 95 129 95 5 0 15 9 23 19 7 11 17 18 20 16 4 -2 21 9 39 25
17 16 34 29 36 29 3 1 11 5 18 11 6 6 42 33 79 61 37 27 65 55 62 62 -5 13
-39 30 -213 107 -62 27 -119 50 -127 50 -8 0 -14 4 -14 9 0 5 -12 12 -27 17
-16 4 -30 8 -33 9 -3 1 -17 7 -31 14 -22 11 -33 9 -83 -13 -32 -14 -65 -26
-72 -26 -8 0 -14 -3 -14 -8 0 -8 -87 -41 -128 -48 -46 -9 -102 52 -87 95 6 18
49 52 70 55 7 1 19 7 26 13 8 5 26 13 42 17 40 10 35 39 -12 62 -22 10 -37 23
-34 28 4 5 1 6 -5 2 -6 -3 -16 -1 -24 6 -21 21 -53 19 -111 -7 -30 -13 -58
-21 -61 -18 -3 4 -6 2 -6 -4 0 -8 -120 -62 -152 -69 -5 -1 -11 -3 -15 -4 -5
-1 -11 -2 -15 -1 -5 0 -8 -3 -8 -8 0 -14 -32 -18 -62 -8 -30 10 -63 53 -60 81
1 16 42 66 42 51 0 -3 17 5 37 18 21 13 41 25 46 25 12 2 79 34 105 51 l24 15
-33 28 c-18 16 -47 36 -65 44 -18 9 -49 32 -69 51 -32 31 -36 41 -32 70 11 66
50 76 141 35 27 -12 52 -22 57 -22 5 0 9 -3 9 -7 0 -5 13 -16 30 -25 22 -13
31 -14 37 -5 9 14 11 77 3 77 -4 0 -6 10 -7 23 -7 147 -7 157 11 176 10 11 32
23 48 26 24 6 35 2 55 -17 13 -14 25 -34 26 -46 1 -12 5 -22 9 -22 3 0 6 -8 6
-17 0 -10 3 -34 6 -53 9 -43 16 -100 21 -160 2 -25 4 -45 5 -45 1 0 3 -13 5
-28 4 -29 52 -80 66 -71 4 2 11 -2 16 -9 4 -7 27 -21 50 -30 41 -16 42 -16 45
6 2 12 1 33 -3 47 -3 14 -5 49 -3 79 3 64 26 93 77 97 51 4 68 -18 83 -111 3
-16 7 -37 10 -45 5 -14 17 -122 18 -168 1 -19 27 -36 169 -107 92 -47 167 -82
167 -78 0 5 4 3 8 -3 9 -14 117 -64 138 -64 10 0 14 6 10 15 -3 8 -2 15 2 15
8 0 7 94 -2 109 -4 5 -3 12 1 14 9 6 8 390 -1 412 -3 8 -1 15 5 15 6 0 7 5 2
13 -4 6 -8 14 -9 17 -11 37 -18 50 -25 50 -7 0 -72 43 -127 85 -51 38 -90 86
-87 107 6 51 41 88 77 82 14 -2 80 -45 98 -64 3 -3 17 -11 32 -17 31 -14 35
-8 37 67 1 24 4 46 6 48 2 2 -1 16 -6 31 -6 18 -53 59 -137 122 -151 112 -189
147 -187 174 2 26 26 75 37 75 4 0 8 5 8 10 0 6 -16 10 -35 10 -19 0 -34 -3
-33 -7z"/>
<path d="M1236 3068 c27 -18 52 -31 57 -30 4 1 7 -2 7 -7 0 -15 109 -81 125
-75 8 3 13 9 10 14 -2 4 0 21 5 39 5 19 5 31 -1 31 -6 0 -6 6 0 18 5 10 6 24
2 31 -10 16 -47 9 -43 -8 1 -7 -3 -20 -10 -29 -11 -13 -11 -14 1 -7 10 5 12 4
7 -3 -11 -18 -30 -15 -54 8 -12 12 -22 18 -22 15 0 -3 -10 3 -22 15 -15 14
-35 20 -67 20 l-45 0 50 -32z"/>
<path d="M1599 3098 c-3 -6 -4 -148 -1 -148 12 0 62 33 62 41 0 6 5 7 10 4 6
-3 10 -3 10 2 0 4 20 22 45 38 24 17 45 33 45 38 0 4 7 7 15 7 8 0 15 5 15 10
0 21 -63 9 -106 -20 -24 -17 -45 -28 -45 -25 -1 3 -3 10 -4 15 -1 6 -3 17 -4
25 -1 12 -37 23 -42 13z"/>
<path d="M1870 3093 c26 -11 45 -35 48 -63 2 -23 -9 -40 -63 -94 -36 -37 -65
-64 -65 -61 0 4 -6 0 -13 -7 -8 -7 -26 -22 -41 -33 -16 -11 -44 -32 -63 -47
-20 -16 -40 -28 -45 -28 -5 0 -6 -4 -3 -10 3 -5 -1 -10 -9 -10 -10 0 -14 -10
-14 -29 1 -15 -2 -33 -6 -40 -4 -6 -3 -11 1 -11 5 0 9 -12 9 -27 3 -71 5 -83
15 -83 12 0 130 79 141 95 5 6 8 5 8 -4 0 -9 4 -10 13 -3 23 19 84 -21 91 -61
3 -20 -4 -37 -30 -68 -19 -22 -34 -38 -34 -35 0 3 -12 -7 -27 -21 -16 -14 -57
-46 -93 -71 -36 -26 -68 -51 -72 -57 -9 -11 -2 -514 6 -523 3 -3 1 -11 -4 -17
-15 -19 13 -37 44 -29 14 3 26 9 26 13 0 4 29 22 65 40 36 19 65 38 65 42 0 5
7 9 15 9 8 0 15 5 15 11 0 5 4 8 9 5 5 -3 14 1 21 9 7 8 17 15 22 15 6 0 24
10 41 23 31 22 54 35 110 64 15 8 27 19 27 24 0 5 3 8 8 7 10 -4 72 35 72 45
0 4 5 5 10 2 6 -4 10 6 10 23 0 16 3 31 6 34 3 4 8 37 10 75 2 37 6 77 8 88 3
11 5 30 5 42 1 19 51 87 51 70 0 -4 10 -3 22 2 25 9 73 -11 82 -35 4 -9 2 -12
-5 -8 -8 5 -8 1 0 -13 6 -11 8 -22 6 -25 -7 -7 -14 -136 -7 -142 6 -7 102 46
102 57 0 5 4 6 9 3 4 -3 18 5 31 19 17 18 22 37 24 79 0 31 3 56 6 56 5 0 12
71 13 138 1 17 4 32 8 32 3 0 5 11 4 24 -4 30 30 106 47 107 7 0 25 2 41 4 15
2 27 -1 27 -6 0 -6 4 -8 8 -5 18 11 32 -12 33 -54 2 -51 -11 -221 -18 -232 -2
-5 10 -8 26 -8 17 0 31 5 31 10 0 6 5 10 11 10 14 0 82 32 89 42 3 4 15 9 25
11 11 1 25 6 32 10 27 17 80 -26 89 -72 3 -17 -49 -70 -101 -101 -22 -13 -43
-28 -46 -33 -3 -5 -8 -7 -10 -6 -10 7 -41 -20 -35 -30 8 -12 65 -39 129 -62
20 -7 37 -16 37 -21 0 -4 6 -5 13 -3 6 2 19 -1 28 -8 53 -41 41 -140 -17 -145
-28 -2 -108 18 -162 40 -15 6 -29 12 -32 12 -24 6 -106 42 -111 49 -3 5 -10 9
-15 9 -11 1 -32 7 -60 18 -15 6 -30 3 -49 -10 -16 -11 -33 -16 -38 -13 -6 3
-7 1 -3 -5 4 -7 1 -12 -6 -12 -7 0 -26 -11 -43 -24 -25 -20 -27 -26 -17 -39 7
-9 33 -24 58 -34 24 -10 44 -22 44 -26 0 -5 4 -6 8 -3 14 9 57 -38 60 -66 2
-15 -2 -36 -8 -47 -12 -23 -70 -57 -70 -41 0 5 -10 10 -22 10 -26 0 -91 22
-99 33 -3 5 -9 9 -12 9 -20 0 -47 12 -47 20 0 6 -7 8 -15 4 -8 -3 -15 -1 -15
5 0 6 -4 8 -9 4 -5 -3 -13 0 -16 5 -15 25 -55 30 -88 13 -18 -9 -35 -16 -39
-15 -5 1 -8 -2 -8 -6 0 -10 -50 -37 -62 -34 -5 1 -8 -1 -8 -6 0 -4 -26 -20
-58 -37 -31 -16 -60 -34 -64 -40 -4 -5 -11 -10 -15 -11 -17 -1 -83 -38 -83
-46 0 -4 -5 -8 -11 -8 -14 0 -145 -78 -159 -96 -9 -10 -8 -17 4 -29 9 -9 16
-14 16 -10 0 3 12 -2 28 -13 15 -10 48 -29 75 -42 26 -13 47 -28 47 -33 0 -6
3 -8 6 -4 3 3 24 -5 45 -19 21 -13 39 -21 39 -17 0 5 4 3 8 -3 7 -10 58 -38
167 -93 28 -13 53 -29 57 -35 4 -6 8 -7 8 -3 0 4 10 2 23 -5 27 -15 39 -17 53
-6 7 5 20 11 30 13 11 2 60 21 109 43 50 22 102 39 115 38 31 -1 73 -38 77
-67 4 -26 -23 -72 -37 -64 -6 4 -10 2 -10 -3 0 -5 -28 -22 -63 -37 -35 -16
-64 -35 -64 -42 0 -7 5 -13 10 -13 5 0 23 -10 40 -22 18 -13 34 -23 37 -23 3
-1 14 -6 26 -12 25 -15 72 -10 113 12 17 8 31 12 31 9 0 -4 9 1 21 12 12 10
24 18 28 18 3 -1 17 3 31 9 14 6 27 11 30 12 3 0 15 6 28 13 12 7 22 10 22 6
0 -4 8 0 18 9 10 10 22 14 25 10 4 -3 7 -1 7 6 0 7 3 10 8 8 4 -3 16 -1 27 3
49 18 116 -50 100 -100 -6 -20 -65 -58 -65 -43 0 5 -4 3 -8 -3 -4 -6 -43 -27
-87 -47 -85 -38 -101 -58 -63 -78 13 -7 25 -15 28 -18 10 -12 69 -51 77 -51 5
0 15 -9 23 -19 7 -11 17 -18 21 -15 8 5 25 -55 20 -71 -2 -5 -4 -16 -4 -22 -1
-19 -65 -37 -81 -24 -7 6 -15 8 -18 5 -7 -6 -98 38 -140 68 -26 18 -27 18 -37
0 -6 -11 -8 -22 -4 -25 3 -3 7 -19 8 -34 2 -15 6 -57 10 -93 4 -36 7 -67 7
-70 1 -37 -39 -78 -70 -74 -17 3 -21 0 -16 -8 5 -8 1 -8 -12 2 -28 21 -56 50
-48 50 3 0 1 6 -5 13 -6 8 -8 16 -6 19 3 3 1 17 -4 31 -6 14 -13 45 -16 69
-13 95 -18 134 -18 156 -1 12 -4 22 -8 22 -4 0 -6 12 -3 26 4 19 -4 34 -30 60
-19 19 -41 34 -50 34 -9 0 -16 5 -16 10 0 6 -3 9 -7 8 -5 -1 -18 4 -31 11 -18
10 -26 10 -38 0 -9 -7 -11 -16 -6 -23 5 -6 9 -48 10 -94 0 -77 -1 -84 -24 -99
-32 -20 -75 -25 -95 -10 -17 13 -50 102 -54 146 -2 14 -5 40 -8 56 -3 17 -8
52 -12 80 -7 55 -22 77 -66 95 -16 7 -29 17 -29 22 0 5 -5 6 -11 2 -6 -3 -14
-2 -18 3 -6 8 -100 66 -111 68 -10 2 -105 50 -110 56 -3 3 -20 12 -37 20 -18
8 -33 17 -33 21 0 5 -4 7 -8 6 -4 -2 -29 8 -55 21 -33 17 -51 21 -58 14 -13
-13 -16 -651 -3 -662 37 -31 145 -111 151 -111 5 -1 26 -18 47 -40 51 -50 55
-92 12 -134 -17 -17 -31 -25 -34 -18 -2 6 -9 9 -15 6 -7 -2 -24 6 -37 18 -14
13 -25 21 -26 18 -1 -3 -16 7 -35 22 -18 16 -41 28 -52 28 -17 0 -18 -7 -15
-84 4 -96 7 -101 93 -159 33 -22 62 -43 65 -47 3 -3 37 -29 76 -58 67 -49 116
-102 95 -102 -5 0 -8 -8 -7 -17 2 -10 -4 -28 -12 -40 -14 -22 -13 -23 17 -23
17 0 32 5 32 10 3 20 4 25 11 36 4 5 5 19 3 30 -2 10 -4 25 -4 33 -1 13 -101
119 -101 106 0 -6 -17 7 -55 43 -14 13 -25 20 -25 17 0 -3 -30 18 -67 46 -38
29 -69 53 -70 54 -1 0 -4 18 -7 38 -3 27 -1 37 10 37 8 0 14 -5 14 -12 0 -6 3
-8 6 -5 4 4 19 -2 33 -12 14 -10 34 -21 45 -25 24 -8 88 3 80 15 -3 5 -1 9 5
9 12 0 42 42 45 62 1 7 4 18 7 23 8 14 -10 75 -22 75 -6 0 -8 4 -5 8 3 5 -9
19 -27 32 -18 13 -36 29 -40 37 -4 7 -15 13 -22 13 -8 0 -15 4 -15 8 0 4 -12
15 -27 25 -84 52 -87 58 -90 163 -1 53 -4 103 -7 110 -3 8 -2 14 2 14 4 0 7
78 7 173 0 166 1 172 20 170 25 -3 347 -171 357 -187 4 -6 8 -7 8 -2 0 5 8 2
18 -7 10 -10 21 -14 25 -11 10 10 25 -30 31 -86 7 -59 11 -88 22 -135 3 -16 6
-38 7 -47 1 -10 6 -18 11 -18 5 0 7 -3 3 -6 -10 -10 21 -62 46 -79 13 -8 37
-17 55 -19 31 -3 92 20 92 35 0 5 7 9 16 9 8 0 13 4 10 9 -3 5 0 14 7 20 9 7
13 32 12 76 -2 56 0 65 15 65 30 0 64 -44 66 -87 2 -35 9 -84 19 -143 3 -14 8
-43 11 -65 3 -22 10 -47 14 -55 4 -8 8 -19 8 -23 0 -39 50 -106 81 -108 9 -1
23 -2 31 -3 29 -3 68 15 96 45 26 27 29 38 30 97 0 37 -2 76 -6 87 -10 30 -2
44 23 37 12 -3 24 -8 27 -12 9 -11 86 -30 123 -30 53 0 93 44 92 101 -1 42
-21 99 -35 99 -3 0 -16 9 -28 20 -12 12 -22 17 -22 13 0 -4 -4 -3 -8 2 -4 6
-20 20 -35 32 l-28 22 23 12 c13 8 26 12 31 11 4 -1 7 2 7 8 0 5 9 10 20 10
11 0 20 5 20 10 0 6 9 10 20 10 11 0 20 5 20 10 0 6 6 10 13 10 8 0 24 11 36
24 18 19 22 33 20 72 -7 105 -106 152 -209 99 -16 -8 -33 -16 -37 -17 -8 -1
-76 -31 -158 -68 -22 -10 -43 -17 -46 -17 -3 1 -13 -4 -21 -11 -12 -10 -21
-10 -41 -1 -43 19 -40 36 10 60 58 28 83 68 73 115 -4 19 -6 34 -3 34 2 0 -3
7 -11 15 -9 9 -19 22 -23 30 -10 17 -78 47 -87 38 -3 -3 -20 -8 -38 -10 -17
-2 -36 -7 -42 -11 -6 -5 -52 -25 -103 -46 l-92 -38 -118 62 c-160 85 -157 84
-165 95 -4 6 -8 7 -8 3 0 -4 -27 8 -59 27 -33 19 -64 35 -70 35 -6 0 -11 5
-11 10 0 6 -6 10 -13 10 -24 0 -37 21 -22 36 7 8 18 14 24 14 6 0 11 5 11 10
0 6 5 10 11 10 6 0 24 9 40 21 16 11 29 17 29 12 0 -4 4 -3 8 2 7 11 129 85
139 85 3 0 17 9 33 20 15 11 30 17 34 13 3 -3 6 -2 6 4 0 5 18 18 40 28 22 10
40 23 40 28 0 6 3 7 7 4 3 -4 12 -2 19 4 9 7 21 6 43 -6 17 -8 34 -16 38 -17
5 -1 30 -12 57 -26 26 -13 53 -25 60 -27 6 -1 18 -5 26 -8 46 -18 94 -25 116
-17 13 5 24 7 24 4 0 -2 8 3 19 13 28 27 49 75 46 105 -5 40 -28 88 -42 88 -7
0 -13 3 -13 8 0 4 -18 16 -40 26 -22 11 -40 22 -40 26 0 11 47 40 64 40 9 0
39 -11 68 -24 48 -21 85 -36 98 -41 3 -1 12 -4 20 -7 59 -23 61 -23 100 -33
65 -16 78 -18 111 -16 57 2 106 81 88 143 -5 19 -17 44 -27 55 -21 24 -97 65
-106 56 -3 -4 -6 -1 -6 5 0 7 -3 11 -7 10 -12 -2 -43 13 -43 22 0 4 19 20 43
35 23 16 52 40 65 54 28 32 43 83 28 93 -6 4 -7 8 -3 8 20 0 -30 60 -62 74
-48 20 -87 15 -155 -22 -52 -28 -57 -29 -66 -12 -5 9 -8 19 -6 21 2 2 7 33 11
69 8 77 8 73 5 83 -1 4 -3 10 -4 15 -9 36 -23 53 -58 70 -37 17 -46 18 -87 5
-64 -19 -101 -65 -96 -120 1 -13 -1 -23 -5 -23 -3 0 -6 -8 -7 -17 0 -10 -4
-47 -7 -83 -4 -36 -9 -94 -11 -129 -4 -49 -10 -68 -27 -83 -12 -10 -28 -16
-36 -13 -7 3 -15 5 -17 5 -1 0 -1 25 1 55 3 46 0 59 -22 85 -14 16 -30 28 -34
25 -5 -3 -11 -1 -14 4 -9 14 -92 7 -112 -9 -52 -41 -60 -62 -70 -200 -6 -88
-33 -151 -72 -171 -15 -8 -29 -17 -32 -20 -9 -10 -55 -33 -62 -31 -5 1 -8 -2
-8 -6 0 -4 -25 -21 -55 -37 -30 -17 -55 -33 -55 -37 0 -5 -7 -8 -15 -8 -8 0
-15 -4 -15 -10 0 -5 -3 -9 -7 -8 -5 1 -21 -6 -38 -16 -16 -11 -47 -30 -67 -42
-50 -32 -65 -24 -63 34 1 26 -3 55 -7 65 -5 9 -5 17 -1 17 4 0 8 16 8 35 0 19
-3 35 -6 35 -4 0 -3 16 1 35 4 19 5 37 1 40 -8 4 -9 191 -1 198 3 2 23 17 45
33 22 16 42 31 45 34 3 3 21 17 41 32 51 38 119 106 120 121 1 7 1 15 0 20 0
4 3 7 9 7 6 0 6 9 0 24 -5 13 -6 27 -3 30 4 3 0 6 -7 6 -7 0 -10 3 -7 7 8 7
-51 63 -67 64 -6 0 -22 2 -36 4 -29 3 -100 -23 -100 -37 0 -5 -4 -6 -10 -3 -5
3 -10 1 -10 -4 0 -12 -29 -15 -31 -3 -10 73 -14 66 93 145 42 31 94 73 115 92
21 19 41 35 45 35 4 0 10 9 13 20 4 11 10 18 15 15 11 -7 40 69 35 94 -9 47
-24 61 -68 60 -23 0 -35 -3 -27 -6z"/>
<path d="M1445 116 c-30 -17 -100 -70 -103 -78 -2 -5 -7 -6 -10 -4 -4 2 -16
-5 -26 -15 -19 -19 -19 -19 19 -19 21 0 46 6 54 14 23 21 45 23 46 6 0 -8 11
-16 25 -18 24 -3 25 -2 23 59 -1 34 -4 63 -5 64 -2 2 -12 -2 -23 -9z"/>
<path d="M1633 65 c-1 -63 0 -65 23 -65 14 0 23 4 20 9 -4 5 -3 19 2 30 8 21
8 21 54 -9 36 -24 56 -30 84 -28 l36 3 -45 28 c-25 16 -53 36 -64 45 -26 23
-78 52 -95 52 -9 0 -13 -18 -15 -65z"/>
</g>
</svg>
